<svg width="469" height="535" viewBox="0 0 469 535" fill="none" xmlns="http://www.w3.org/2000/svg">
<path d="M25.7317 112.879L213.307 7.26934C228.766 -1.43432 247.679 -1.29487 263.008 7.63578L443.432 112.753C458.806 121.71 468.262 138.162 468.262 155.955V375.119C468.262 392.569 459.165 408.756 444.26 417.829L263.821 527.662C248.083 537.241 228.352 537.39 212.472 528.048L24.9112 417.718C9.63923 408.735 0.262177 392.34 0.262177 374.622V156.448C0.262177 138.391 9.99763 121.738 25.7317 112.879Z" fill="#E3472F"/>
<path d="M124.286 109.36L124.065 426.979L344.46 427.077V109.442L124.286 109.36ZM132.21 418.837L132.425 117.502L336.318 117.584V418.934L132.21 418.837Z" fill="white"/>
<path d="M148.491 134.117V191.539C158.781 193.44 168.08 198.885 174.773 206.928C181.466 214.971 185.131 225.104 185.131 235.568C185.131 246.031 181.466 256.165 174.773 264.208C168.08 272.251 158.781 277.695 148.491 279.596V337.017C173.993 334.972 197.79 323.398 215.143 304.598C232.495 285.798 242.131 261.152 242.131 235.568C242.131 209.984 232.495 185.339 215.143 166.539C197.79 147.739 173.993 136.164 148.491 134.119V134.117Z" fill="white"/>
<path d="M200.486 133.801C201.296 134.279 202.099 134.766 202.897 135.261L202.914 135.272C203.711 135.768 204.502 136.273 205.286 136.787L205.302 136.798C206.087 137.314 206.867 137.839 207.64 138.373H207.644C208.424 138.912 209.196 139.459 209.962 140.016C210.722 140.567 211.473 141.127 212.215 141.695L212.229 141.706C212.971 142.273 213.706 142.848 214.433 143.432L214.448 143.443C215.175 144.027 215.896 144.619 216.61 145.22L216.623 145.231C217.334 145.829 218.038 146.436 218.735 147.053L218.747 147.063L218.788 147.099C220.19 148.34 221.563 149.613 222.905 150.917C223.57 151.565 224.228 152.22 224.879 152.882L224.888 152.891C225.561 153.578 226.225 154.272 226.881 154.973C226.904 154.999 226.928 155.023 226.951 155.048L226.961 155.06C230.329 158.669 233.468 162.485 236.36 166.485L236.491 166.665V166.669C238.662 169.686 240.691 172.807 242.578 176.033L242.703 176.243V176.248C247.916 185.195 251.923 194.793 254.617 204.792L254.621 204.807C255.243 207.12 255.806 209.459 256.29 211.826C256.29 211.836 256.29 211.845 256.294 211.855C256.527 212.995 256.737 214.141 256.937 215.292V215.301C256.966 215.464 256.992 215.634 257.018 215.8C257.192 216.835 257.353 217.874 257.5 218.919L257.505 218.947C257.54 219.199 257.576 219.45 257.61 219.702C257.78 220.968 257.936 222.237 258.067 223.516V223.535C258.336 226.19 258.513 228.869 258.598 231.574C258.603 231.689 258.608 231.803 258.612 231.917V231.926C258.648 233.135 258.673 234.347 258.673 235.565C258.673 236.534 258.66 237.499 258.636 238.461C258.627 238.868 258.608 239.275 258.595 239.682C258.575 240.211 258.56 240.741 258.533 241.268C258.501 241.944 258.459 242.617 258.415 243.289C258.402 243.492 258.391 243.696 258.376 243.9C256.616 269.271 246.674 293.386 230.042 312.626L320.034 402.613V312.991H295.608V133.868L200.472 133.786H200.477L200.486 133.801Z" fill="white"/>
<path d="M218.594 324.202C218.072 324.662 217.546 325.118 217.017 325.57L217.004 325.581C213.99 328.139 210.849 330.547 207.582 332.804L207.567 332.813C206.922 333.258 206.27 333.697 205.613 334.13C205.598 334.141 205.583 334.151 205.567 334.16C201.59 336.786 197.457 339.167 193.192 341.292L193.135 341.321C188.83 343.463 184.398 345.339 179.863 346.939C179.855 346.943 179.846 346.945 179.836 346.947C169.729 350.505 159.182 352.662 148.49 353.361V402.553L263.026 402.604L263.039 402.631H297.026L218.594 324.202Z" fill="white"/>
</svg>
